#tb 0: 1/25
#media_type 0: video
#codec_id 0: rawvideo
#dimensions 0: 352x288
#sar 0: 0/1
0,          0,          0,        1,   405504, 0xb3a2caab
0,          1,          1,        1,   405504, 0x878b2fb8
0,          2,          2,        1,   405504, 0xf39dac33
0,          3,          3,        1,   405504, 0x94ef53b1
0,          4,          4,        1,   405504, 0x6ed80f30
0,          5,          5,        1,   405504, 0x82def1f8
0,          6,          6,        1,   405504, 0xdafab027
0,          7,          7,        1,   405504, 0xddef2774
0,          8,          8,        1,   405504, 0x877771bd
0,          9,          9,        1,   405504, 0xfaf7da12
0,         10,         10,        1,   405504, 0x484be589
0,         11,         11,        1,   405504, 0x15d660e2
0,         12,         12,        1,   405504, 0xa01849c8
0,         13,         13,        1,   405504, 0x823c33da
0,         14,         14,        1,   405504, 0x3aef6445
0,         15,         15,        1,   405504, 0x75f2961b
0,         16,         16,        1,   405504, 0x7615ddac
0,         17,         17,        1,   405504, 0xbcf92755
0,         18,         18,        1,   405504, 0xc84ee75f
0,         19,         19,        1,   405504, 0xf9d11220
0,         20,         20,        1,   405504, 0x6e1afa4a
0,         21,         21,        1,   405504, 0x47fcc8b2
0,         22,         22,        1,   405504, 0xa5f618bc
0,         23,         23,        1,   405504, 0x2528509b
0,         24,         24,        1,   405504, 0x0b77ec0b
0,         25,         25,        1,   405504, 0x8d5ea91d
0,         26,         26,        1,   405504, 0xd8a04b22
0,         27,         27,        1,   405504, 0xbde327bd
0,         28,         28,        1,   405504, 0x9713aeb4
0,         29,         29,        1,   405504, 0xc168c52e
0,         30,         30,        1,   405504, 0xa3da9f70
0,         31,         31,        1,   405504, 0xe58350d0
0,         32,         32,        1,   405504, 0x6c656178
0,         33,         33,        1,   405504, 0xe9563056
0,         34,         34,        1,   405504, 0xf1f2c14d
0,         35,         35,        1,   405504, 0x5d59fe20
0,         36,         36,        1,   405504, 0x5ddb514e
0,         37,         37,        1,   405504, 0x6251dbf8
0,         38,         38,        1,   405504, 0x94c7d2d6
0,         39,         39,        1,   405504, 0x1e44022a
0,         40,         40,        1,   405504, 0x51c157a1
0,         41,         41,        1,   405504, 0xc8991bd1
0,         42,         42,        1,   405504, 0x046be642
0,         43,         43,        1,   405504, 0x330da15f
0,         44,         44,        1,   405504, 0xf6428e42
0,         45,         45,        1,   405504, 0x8d303561
0,         46,         46,        1,   405504, 0x135ed7d0
0,         47,         47,        1,   405504, 0x0382f361
0,         48,         48,        1,   405504, 0xddea2009
0,         49,         49,        1,   405504, 0xd9b0262b
